<svg width="16" height="18" viewBox="0 0 16 18" fill="none" xmlns="http://www.w3.org/2000/svg">
<path d="M11.5589 4.34875C10.077 4.23917 8.81981 5.17652 8.11844 5.17652C7.40685 5.17652 6.30967 4.3724 5.14634 4.39445C3.6188 4.41673 2.21084 5.28338 1.42308 6.65109C-0.163799 9.40517 1.01772 13.486 2.56323 15.7209C3.31915 16.8128 4.22081 18.0434 5.40506 17.9987C6.54497 17.9539 6.97625 17.2614 8.3542 17.2614C9.73124 17.2614 10.1198 17.9987 11.3252 17.9766C12.5522 17.9539 13.3295 16.8619 14.0799 15.7638C14.9484 14.4964 15.3051 13.2692 15.3262 13.2041C15.2992 13.1939 12.9346 12.2866 12.9109 9.56227C12.8895 7.28471 14.7699 6.18981 14.8554 6.13706C13.7885 4.56519 12.1395 4.39172 11.5589 4.34875Z" fill="url(#paint0_linear_218_102)"/>
<path d="M10.645 2.87366C11.2743 2.11296 11.6978 1.05375 11.5812 0C10.6754 0.0359208 9.57986 0.603378 8.9301 1.36363C8.34832 2.03703 7.83724 3.11556 7.97615 4.14771C8.98557 4.22547 10.0161 3.63482 10.645 2.87366Z" fill="url(#paint1_linear_218_102)"/>
<defs>
<linearGradient id="paint0_linear_218_102" x1="15.3264" y1="11.1693" x2="0.669772" y2="11.1693" gradientUnits="userSpaceOnUse">
<stop stop-color="#FF12DC"/>
<stop offset="1" stop-color="#FFB912"/>
</linearGradient>
<linearGradient id="paint1_linear_218_102" x1="11.6006" y1="2.07714" x2="7.95309" y2="2.07714" gradientUnits="userSpaceOnUse">
<stop stop-color="#FF12DC"/>
<stop offset="1" stop-color="#FFB912"/>
</linearGradient>
</defs>
</svg>
